<svg width="142" height="41" viewBox="0 0 142 41" fill="none" xmlns="http://www.w3.org/2000/svg">
<path d="M93.4999 3.28571C93.4999 2.02335 91.9329 1 89.9998 1C88.0668 1 86.4998 2.02335 86.4998 3.28571" stroke="black" stroke-linecap="round" stroke-linejoin="round"/>
<path d="M84.7498 7.74286C83.1343 7.74286 82 6.66782 82 5.44306C82 4.21829 83.2497 1.34286 86.5001 3.31783" stroke="black" stroke-linecap="round" stroke-linejoin="round"/>
<path d="M95.5 7.85715C97.1154 7.85715 98 6.6238 98 5.39903C98 4.17427 96.7503 1.29884 93.4999 3.27381" stroke="black" stroke-linecap="round" stroke-linejoin="round"/>
<path d="M84.7498 7.62857V13.1143H95.5V7.62857" stroke="black"/>
<line x1="85" y1="11.85" x2="95" y2="11.85" stroke="black" stroke-width="0.3"/>
<line x1="85" y1="10.85" x2="95" y2="10.85" stroke="black" stroke-width="0.3"/>
<path d="M15.7549 24.1348C15.6279 25.2943 15.2936 26.3395 14.752 27.2705C14.2103 28.193 13.4443 28.9209 12.4541 29.4541C11.4639 29.9873 10.224 30.2539 8.73438 30.2539C7.28711 30.2539 6.02181 29.9027 4.93848 29.2002C3.85514 28.4893 3.01302 27.4906 2.41211 26.2041C1.8112 24.9176 1.51074 23.4154 1.51074 21.6973V19.8311C1.51074 18.1045 1.8112 16.6022 2.41211 15.3242C3.02148 14.0378 3.88477 13.0391 5.00195 12.3281C6.11914 11.6172 7.43945 11.2617 8.96289 11.2617C10.3594 11.2617 11.54 11.5241 12.5049 12.0488C13.4697 12.5651 14.2188 13.2887 14.752 14.2197C15.2936 15.1507 15.6279 16.2256 15.7549 17.4443H13.292C13.1058 16.1494 12.6911 15.1296 12.0479 14.3848C11.4131 13.6315 10.3848 13.2549 8.96289 13.2549C7.87109 13.2549 6.95703 13.5299 6.2207 14.0801C5.48438 14.6217 4.92578 15.3835 4.54492 16.3652C4.17253 17.347 3.98633 18.4938 3.98633 19.8057V21.6973C3.98633 22.9076 4.1556 24.012 4.49414 25.0107C4.83268 26.001 5.34896 26.7923 6.04297 27.3848C6.74544 27.9772 7.64258 28.2734 8.73438 28.2734C9.77539 28.2734 10.6006 28.1084 11.21 27.7783C11.8278 27.4482 12.2933 26.9743 12.6064 26.3564C12.9281 25.7386 13.1566 24.998 13.292 24.1348H15.7549ZM18.1035 22.9922C18.1035 21.6634 18.3574 20.4743 18.8652 19.4248C19.373 18.3753 20.0924 17.5459 21.0234 16.9365C21.9544 16.3187 23.0589 16.0098 24.3369 16.0098C25.6318 16.0098 26.749 16.3187 27.6885 16.9365C28.6279 17.5459 29.3473 18.3753 29.8467 19.4248C30.3545 20.4743 30.6084 21.6634 30.6084 22.9922V23.2842C30.6084 24.6045 30.3545 25.7936 29.8467 26.8516C29.3473 27.901 28.6279 28.7305 27.6885 29.3398C26.7575 29.9492 25.6488 30.2539 24.3623 30.2539C23.0758 30.2539 21.9629 29.9492 21.0234 29.3398C20.0924 28.7305 19.373 27.901 18.8652 26.8516C18.3574 25.7936 18.1035 24.6045 18.1035 23.2842V22.9922ZM20.4775 23.2842C20.4775 24.1898 20.6214 25.0277 20.9092 25.7979C21.1969 26.568 21.6243 27.1859 22.1914 27.6514C22.7669 28.1169 23.4906 28.3496 24.3623 28.3496C25.2256 28.3496 25.9408 28.1169 26.5078 27.6514C27.0833 27.1859 27.515 26.568 27.8027 25.7979C28.0905 25.0277 28.2344 24.1898 28.2344 23.2842V22.9922C28.2344 22.0866 28.0905 21.2487 27.8027 20.4785C27.515 19.7083 27.0833 19.0905 26.5078 18.625C25.9323 18.151 25.2087 17.9141 24.3369 17.9141C23.4821 17.9141 22.7669 18.151 22.1914 18.625C21.6159 19.0905 21.1842 19.7083 20.8965 20.4785C20.6172 21.2487 20.4775 22.0866 20.4775 22.9922V23.2842ZM32.957 22.9922C32.957 21.6634 33.2109 20.4743 33.7188 19.4248C34.2266 18.3753 34.946 17.5459 35.877 16.9365C36.8079 16.3187 37.9124 16.0098 39.1904 16.0098C40.4854 16.0098 41.6025 16.3187 42.542 16.9365C43.4814 17.5459 44.2008 18.3753 44.7002 19.4248C45.208 20.4743 45.4619 21.6634 45.4619 22.9922V23.2842C45.4619 24.6045 45.208 25.7936 44.7002 26.8516C44.2008 27.901 43.4814 28.7305 42.542 29.3398C41.611 29.9492 40.5023 30.2539 39.2158 30.2539C37.9294 30.2539 36.8164 29.9492 35.877 29.3398C34.946 28.7305 34.2266 27.901 33.7188 26.8516C33.2109 25.7936 32.957 24.6045 32.957 23.2842V22.9922ZM35.3311 23.2842C35.3311 24.1898 35.4749 25.0277 35.7627 25.7979C36.0505 26.568 36.4779 27.1859 37.0449 27.6514C37.6204 28.1169 38.3441 28.3496 39.2158 28.3496C40.0791 28.3496 40.7943 28.1169 41.3613 27.6514C41.9368 27.1859 42.3685 26.568 42.6562 25.7979C42.944 25.0277 43.0879 24.1898 43.0879 23.2842V22.9922C43.0879 22.0866 42.944 21.2487 42.6562 20.4785C42.3685 19.7083 41.9368 19.0905 41.3613 18.625C40.7858 18.151 40.0622 17.9141 39.1904 17.9141C38.3356 17.9141 37.6204 18.151 37.0449 18.625C36.4694 19.0905 36.0378 19.7083 35.75 20.4785C35.4707 21.2487 35.3311 22.0866 35.3311 22.9922V23.2842ZM50.8066 30H48.4326V10.5H50.8066V30ZM53.2188 22.6621L49.8418 26.1406L49.6514 23.6523L52.0635 20.7959L56.3037 16.2637H59.1855L53.2188 22.6621ZM52.1396 23.4365L53.3711 21.3545L59.8203 30H57.0273L52.1396 23.4365ZM63.9844 30H61.6104V16.2637H63.8574L63.9844 18.9932V30ZM62.3975 22.5605C62.4059 21.3079 62.6175 20.1908 63.0322 19.209C63.4554 18.2188 64.0775 17.4401 64.8984 16.873C65.7279 16.2975 66.7562 16.0098 67.9834 16.0098C69.2699 16.0098 70.332 16.3864 71.1699 17.1396C72.0078 17.8929 72.4268 19.1286 72.4268 20.8467V30H70.0527V20.9609C70.0527 20.2415 69.93 19.666 69.6846 19.2344C69.4476 18.7943 69.109 18.4769 68.6689 18.2822C68.2288 18.0791 67.7126 17.9775 67.1201 17.9775C66.4346 17.9775 65.859 18.1003 65.3936 18.3457C64.9365 18.5911 64.5684 18.9297 64.2891 19.3613C64.0098 19.793 63.8066 20.2881 63.6797 20.8467C63.5612 21.3968 63.502 21.9808 63.502 22.5986L62.3975 22.5605ZM70.8145 21.7861C70.8229 20.7874 71.0345 19.848 71.4492 18.9678C71.8724 18.0876 72.4902 17.3766 73.3027 16.835C74.1152 16.2848 75.1055 16.0098 76.2734 16.0098C77.2552 16.0098 78.0889 16.1833 78.7744 16.5303C79.46 16.8773 79.9805 17.4147 80.3359 18.1426C80.6914 18.8704 80.8691 19.8141 80.8691 20.9736V30H78.4951V20.9482C78.4951 20.1781 78.3724 19.5771 78.127 19.1455C77.89 18.7139 77.5514 18.4134 77.1113 18.2441C76.6797 18.0664 76.1676 17.9775 75.5752 17.9775C75.0589 17.9775 74.6019 18.0664 74.2041 18.2441C73.8148 18.4219 73.4847 18.6673 73.2139 18.9805C72.9515 19.2852 72.7484 19.6364 72.6045 20.0342C72.4691 20.432 72.4014 20.8551 72.4014 21.3037L70.8145 21.7861ZM106.59 26.3564C106.59 26.0179 106.514 25.7048 106.361 25.417C106.217 25.1208 105.921 24.8542 105.473 24.6172C105.024 24.3717 104.347 24.1559 103.441 23.9697C102.426 23.7581 101.546 23.4915 100.801 23.1699C100.064 22.8398 99.4932 22.4209 99.0869 21.9131C98.6891 21.4053 98.4902 20.7747 98.4902 20.0215C98.4902 19.2936 98.6976 18.6292 99.1123 18.0283C99.5355 17.4189 100.128 16.9323 100.89 16.5684C101.66 16.196 102.557 16.0098 103.581 16.0098C104.681 16.0098 105.621 16.2044 106.399 16.5938C107.187 16.9746 107.787 17.4909 108.202 18.1426C108.617 18.7858 108.824 19.501 108.824 20.2881H106.45C106.45 19.721 106.201 19.1836 105.701 18.6758C105.21 18.168 104.504 17.9141 103.581 17.9141C102.938 17.9141 102.413 18.0156 102.007 18.2188C101.609 18.4134 101.317 18.6673 101.131 18.9805C100.953 19.2852 100.864 19.6068 100.864 19.9453C100.864 20.2839 100.949 20.5801 101.118 20.834C101.287 21.0794 101.596 21.2995 102.045 21.4941C102.502 21.6888 103.162 21.8835 104.025 22.0781C105.151 22.332 106.078 22.6367 106.806 22.9922C107.534 23.3477 108.075 23.7835 108.431 24.2998C108.786 24.8161 108.964 25.4466 108.964 26.1914C108.964 26.987 108.744 27.6937 108.304 28.3115C107.864 28.9209 107.246 29.3991 106.45 29.7461C105.655 30.0846 104.719 30.2539 103.645 30.2539C102.434 30.2539 101.41 30.0381 100.572 29.6064C99.7344 29.1748 99.0996 28.6204 98.668 27.9434C98.2363 27.2578 98.0205 26.5342 98.0205 25.7725H100.395C100.437 26.4157 100.623 26.9277 100.953 27.3086C101.292 27.681 101.702 27.9476 102.185 28.1084C102.675 28.2692 103.162 28.3496 103.645 28.3496C104.288 28.3496 104.825 28.265 105.257 28.0957C105.697 27.918 106.027 27.681 106.247 27.3848C106.476 27.0801 106.59 26.7373 106.59 26.3564ZM117.8 18.0537H110.36V16.2637H117.8V18.0537ZM115.235 12.9248V26.5977C115.235 27.0716 115.307 27.4271 115.451 27.6641C115.595 27.901 115.781 28.0576 116.01 28.1338C116.238 28.21 116.484 28.248 116.746 28.248C116.941 28.248 117.144 28.2311 117.355 28.1973C117.576 28.1634 117.736 28.1338 117.838 28.1084L117.851 30C117.664 30.0592 117.419 30.1143 117.114 30.165C116.818 30.2243 116.458 30.2539 116.035 30.2539C115.46 30.2539 114.931 30.1396 114.448 29.9111C113.966 29.6826 113.581 29.3018 113.293 28.7686C113.005 28.2269 112.861 27.499 112.861 26.585V12.9248H115.235ZM126.242 30.2539C124.964 30.2539 123.851 29.9704 122.903 29.4033C121.964 28.8278 121.232 28.0407 120.707 27.042C120.191 26.0433 119.933 24.9007 119.933 23.6143V23.0684C119.933 21.5788 120.216 20.3092 120.783 19.2598C121.359 18.2018 122.104 17.3978 123.018 16.8477C123.94 16.2891 124.913 16.0098 125.938 16.0098C127.258 16.0098 128.333 16.306 129.162 16.8984C130 17.4824 130.614 18.2822 131.003 19.2979C131.401 20.305 131.6 21.4476 131.6 22.7256V23.7793H121.342V21.875H129.226V21.6973C129.192 21.0879 129.069 20.4954 128.857 19.9199C128.646 19.3359 128.307 18.8577 127.842 18.4854C127.376 18.1045 126.742 17.9141 125.938 17.9141C125.227 17.9141 124.596 18.1172 124.046 18.5234C123.504 18.9212 123.077 19.5052 122.764 20.2754C122.459 21.0371 122.307 21.9681 122.307 23.0684V23.6143C122.307 24.486 122.467 25.2816 122.789 26.001C123.111 26.7119 123.576 27.2832 124.186 27.7148C124.795 28.138 125.523 28.3496 126.369 28.3496C127.199 28.3496 127.901 28.1803 128.477 27.8418C129.052 27.5033 129.556 27.0505 129.987 26.4834L131.422 27.6006C130.982 28.2777 130.347 28.8913 129.518 29.4414C128.697 29.9831 127.605 30.2539 126.242 30.2539ZM136.716 30H134.342V16.2637H136.652L136.716 18.4219V30ZM140.994 18.3584C140.791 18.3161 140.601 18.2907 140.423 18.2822C140.254 18.2653 140.059 18.2568 139.839 18.2568C139.119 18.2568 138.51 18.4049 138.011 18.7012C137.52 18.9974 137.139 19.4079 136.868 19.9326C136.597 20.4489 136.428 21.0413 136.36 21.71L135.688 22.0908C135.688 20.9821 135.836 19.9707 136.132 19.0566C136.428 18.1341 136.889 17.3978 137.516 16.8477C138.15 16.2891 138.963 16.0098 139.953 16.0098C140.114 16.0098 140.304 16.0309 140.524 16.0732C140.753 16.1071 140.91 16.1452 140.994 16.1875V18.3584Z" fill="black"/>
<path d="M92.5234 20.5801C92.5234 19.7591 92.278 19.1074 91.7871 18.625C91.3047 18.1341 90.5895 17.8887 89.6416 17.8887C89.0576 17.8887 88.5413 17.9902 88.0928 18.1934C87.6527 18.3965 87.3099 18.6631 87.0645 18.9932C86.819 19.3232 86.6963 19.6829 86.6963 20.0723H84.3223C84.3223 19.4121 84.5465 18.7731 84.9951 18.1553C85.4437 17.529 86.0742 17.0169 86.8867 16.6191C87.7077 16.2129 88.6725 16.0098 89.7812 16.0098C90.7799 16.0098 91.6644 16.179 92.4346 16.5176C93.2048 16.8561 93.8057 17.3682 94.2373 18.0537C94.6774 18.7308 94.8975 19.5814 94.8975 20.6055V27.0039C94.8975 27.4609 94.9355 27.9476 95.0117 28.4639C95.0964 28.9801 95.2191 29.4245 95.3799 29.7969V30H92.9043C92.7858 29.7292 92.6927 29.3695 92.625 28.9209C92.5573 28.4639 92.5234 28.0407 92.5234 27.6514V20.5801ZM92.9551 23.3223H90.5938C89.2565 23.3223 88.224 23.5339 87.4961 23.957C86.7682 24.3802 86.4043 25.015 86.4043 25.8613C86.4043 26.5215 86.6243 27.0801 87.0645 27.5371C87.513 27.9941 88.1647 28.2227 89.0195 28.2227C89.7389 28.2227 90.3737 28.0703 90.9238 27.7656C91.474 27.4609 91.9098 27.0843 92.2314 26.6357C92.5531 26.1872 92.7266 25.7555 92.752 25.3408L93.7676 26.4707C93.7083 26.8262 93.5475 27.2197 93.2852 27.6514C93.0228 28.083 92.6715 28.4977 92.2314 28.8955C91.7998 29.2848 91.2835 29.6107 90.6826 29.873C90.0902 30.127 89.4215 30.2539 88.6768 30.2539C87.7458 30.2539 86.929 30.0762 86.2266 29.7207C85.5326 29.3568 84.9909 28.8659 84.6016 28.248C84.2207 27.6302 84.0303 26.9447 84.0303 26.1914C84.0303 24.7103 84.5889 23.5889 85.7061 22.8271C86.8232 22.057 88.3255 21.6719 90.2129 21.6719H92.9297L92.9551 23.3223Z" fill="#C70039"/>
</svg>
