<svg width="60" height="60" viewBox="0 0 60 60" fill="none" xmlns="http://www.w3.org/2000/svg">
<path d="M47.4901 17.83C47.4901 17.83 35.1317 35.1317 16.5942 35.1317M16.5942 35.1317C11.6509 35.1317 3 37.6034 3 47.4901V57.3768H30.1884V47.4901C30.1884 41.3109 37.6034 45.0184 47.4901 27.7167L43.7826 24.0092M16.5942 35.1317C21.3719 35.1317 25.2451 31.2586 25.2451 26.4809C25.2451 21.7032 21.3719 17.83 16.5942 17.83C11.8165 17.83 7.94335 21.7032 7.94335 26.4809C7.94335 31.2586 11.8165 35.1317 16.5942 35.1317ZM7.94335 12.8867V5.47167H57.3768V40.0751H49.9618M27.7167 3H37.6034V7.94335H27.7167V3Z" stroke="#4D47A7" stroke-width="4.94335"/>
</svg>
