<svg width="58" height="58" viewBox="0 0 58 58" fill="none" xmlns="http://www.w3.org/2000/svg">
<path d="M12.3584 10.415H54.3768L49.4335 32.6601H17.3017M17.3017 32.6601L9.88669 3H0M17.3017 32.6601L19.7734 42.5468H51.9051M46.9618 54.9051C45.5962 54.9051 44.4901 53.7991 44.4901 52.4335C44.4901 51.0679 45.5962 49.9618 46.9618 49.9618C48.3274 49.9618 49.4335 51.0679 49.4335 52.4335C49.4335 53.7991 48.3274 54.9051 46.9618 54.9051ZM22.2451 54.9051C20.8795 54.9051 19.7734 53.7991 19.7734 52.4335C19.7734 51.0679 20.8795 49.9618 22.2451 49.9618C23.6107 49.9618 24.7167 51.0679 24.7167 52.4335C24.7167 53.7991 23.6107 54.9051 22.2451 54.9051Z" stroke="#4D47A7" stroke-width="4.94335"/>
</svg>
