<svg width="69" height="71" viewBox="0 0 69 71" fill="none" xmlns="http://www.w3.org/2000/svg">
<path fill-rule="evenodd" clip-rule="evenodd" d="M0 0H2.97592H50.5907H53.5666V2.97592V12.1506C62.0114 13.5674 68.4462 20.9118 68.4462 29.7592C68.4462 35.0474 66.1473 39.7988 62.4944 43.0681V65.4703V71.0308L57.8677 67.9466L50.5907 63.0952L43.3137 67.9466L38.687 71.0308V65.4703V59.5185H2.97592H0V56.5425V2.97592V0ZM38.687 53.5666V43.0681C35.034 39.7988 32.7351 35.0474 32.7351 29.7592C32.7351 20.9118 39.17 13.5674 47.6148 12.1506V5.95185H5.95185V53.5666H38.687ZM44.6388 46.5988V59.9098L48.9399 57.0422L50.5907 55.9417L52.2414 57.0422L56.5425 59.9098V46.5988C54.6808 47.2568 52.6777 47.6148 50.5907 47.6148C48.5037 47.6148 46.5006 47.2568 44.6388 46.5988ZM50.5907 17.8555C44.0166 17.8555 38.687 23.185 38.687 29.7592C38.687 36.3333 44.0166 41.6629 50.5907 41.6629C57.1648 41.6629 62.4944 36.3333 62.4944 29.7592C62.4944 23.185 57.1648 17.8555 50.5907 17.8555ZM29.7592 26.7833H11.9037V20.8315H29.7592V26.7833ZM11.9037 35.7111H26.7833V29.7592H11.9037V35.7111ZM17.8555 44.6388H11.9037V38.687H17.8555V44.6388ZM11.9037 17.8556H17.8555V11.9037H11.9037V17.8556Z" fill="#4D47A7"/>
</svg>
