<svg width="60" height="60" viewBox="0 0 60 60" fill="none" xmlns="http://www.w3.org/2000/svg">
<path d="M30.1884 57.3768C45.2041 57.3768 57.3768 45.2041 57.3768 30.1884C57.3768 15.1727 45.2041 3 30.1884 3M30.1884 57.3768C15.1727 57.3768 3 45.2041 3 30.1884C3 15.1727 15.1727 3 30.1884 3M30.1884 57.3768C37.6034 57.3768 40.0751 45.0184 40.0751 30.1884C40.0751 15.3584 37.6034 3 30.1884 3M30.1884 57.3768C22.7734 57.3768 20.3017 45.0184 20.3017 30.1884C20.3017 15.3584 22.7734 3 30.1884 3M5.47167 40.0751H54.9051M5.47167 20.3017H54.9051" stroke="#4D47A7" stroke-width="4.94335"/>
</svg>
