<svg width="23" height="29" viewBox="0 0 23 29" fill="none" xmlns="http://www.w3.org/2000/svg">
<path d="M21.0274 25.0425L21.8715 26.3864C22.4084 26.0491 22.6932 25.4248 22.5956 24.7984C22.4981 24.172 22.0371 23.6636 21.4232 23.5056L21.0274 25.0425ZM21.0274 3.52432L21.4232 5.06123C22.0371 4.90316 22.4981 4.39486 22.5956 3.76842C22.6932 3.142 22.4084 2.51763 21.8715 2.18041L21.0274 3.52432ZM14.2834 28.5668C17.0687 28.5668 19.6721 27.7681 21.8715 26.3864L20.1833 23.6986C18.4748 24.7719 16.454 25.3927 14.2834 25.3927V28.5668ZM0 14.2834C0 22.172 6.3949 28.5668 14.2834 28.5668V25.3927C8.14789 25.3927 3.17409 20.4189 3.17409 14.2834H0ZM14.2834 0C6.3949 0 0 6.3949 0 14.2834H3.17409C3.17409 8.14791 8.14789 3.17409 14.2834 3.17409V0ZM21.8715 2.18041C19.6721 0.798776 17.0687 0 14.2834 0V3.17409C16.454 3.17409 18.4748 3.79501 20.1833 4.86823L21.8715 2.18041ZM20.6317 1.98739C15.1566 3.3971 11.1093 8.3656 11.1093 14.2834H14.2834C14.2834 9.84887 17.3163 6.11866 21.4232 5.06123L20.6317 1.98739ZM11.1093 14.2834C11.1093 20.2012 15.1566 25.1697 20.6317 26.5794L21.4232 23.5056C17.3163 22.4481 14.2834 18.7179 14.2834 14.2834H11.1093Z" fill="black"/>
</svg>
