<svg width="55" height="58" viewBox="0 0 55 58" fill="none" xmlns="http://www.w3.org/2000/svg">
<path fill-rule="evenodd" clip-rule="evenodd" d="M28.1064 0.367182L27.1884 0L26.2704 0.367182L1.55372 10.2539L0 10.8754V12.5488V44.6806V46.3539L1.55372 46.9755L26.2704 56.8622L27.1884 57.2292L28.1064 56.8622L52.8231 46.9755L54.3768 46.3539V44.6806V12.5488V10.8754L52.8231 10.2539L28.1064 0.367182ZM4.94335 16.1995V43.0072L24.7167 50.9166V24.1088L4.94335 16.1995ZM29.6601 24.1088V50.9166L49.4335 43.0072V16.1995L29.6601 24.1088ZM45.2499 12.5488L27.1884 5.32415L22.1031 7.35824L40.1647 14.5829L45.2499 12.5488ZM9.12685 12.5488L15.448 10.0203L33.5095 17.2449L27.1884 19.7734L9.12685 12.5488Z" fill="#4D47A7"/>
</svg>
