<svg width="42" height="46" viewBox="0 0 42 46" fill="none" xmlns="http://www.w3.org/2000/svg">
<path d="M6.05349 17.5387V3H32.4088L38.7695 9.36069V42.9815H4.24001M29.6828 3V12.0867H38.7695M26.9567 35.7121V22.9907H34.2261M26.9567 29.3514H32.4088M2.42267 22.9907H2.877H5.14868C8.78336 22.9907 9.23769 25.2624 9.23769 26.6254C9.23769 27.9884 8.78336 30.2601 5.14868 30.2601H2.877V33.8948H2.42267V22.9907ZM14.2354 33.8948V22.9907H17.3344C19.4004 22.9907 21.5047 23.8994 21.5047 28.4428C21.5047 32.9861 19.4004 33.8948 17.3344 33.8948C15.9571 33.8948 14.2354 33.8948 14.2354 33.8948Z" stroke="#4D47A7" stroke-width="4.76108"/>
</svg>
