<svg width="55" height="55" viewBox="0 0 55 55" fill="none" xmlns="http://www.w3.org/2000/svg">
<path d="M13.5942 20.3913C17.3481 20.3913 20.3913 17.3481 20.3913 13.5942M13.5942 20.3913C9.84027 20.3913 6.7971 17.3481 6.7971 13.5942M13.5942 20.3913V27.1884M20.3913 13.5942C20.3913 9.84027 17.3481 6.7971 13.5942 6.7971M20.3913 13.5942H27.1884M13.5942 6.7971C9.84027 6.7971 6.7971 9.84027 6.7971 13.5942M13.5942 6.7971V0M6.7971 13.5942H0M4.5314 4.5314L9.0628 9.0628M18.1256 18.1256L22.657 22.657M22.657 4.5314L18.1256 9.0628M9.0628 18.1256L4.5314 22.657M40.7826 27.1884C44.5365 27.1884 47.5797 24.1452 47.5797 20.3913M40.7826 27.1884C37.0287 27.1884 33.9855 24.1452 33.9855 20.3913M40.7826 27.1884V33.9855M47.5797 20.3913C47.5797 16.6374 44.5365 13.5942 40.7826 13.5942M47.5797 20.3913H54.3768M40.7826 13.5942C37.0287 13.5942 33.9855 16.6374 33.9855 20.3913M40.7826 13.5942V6.7971M33.9855 20.3913H27.1884M31.7198 11.3285L36.2512 15.8599M45.314 24.9227L49.8454 29.4541M49.8454 11.3285L45.314 15.8599M36.2512 24.9227L31.7198 29.4541M20.3913 47.5797C24.1452 47.5797 27.1884 44.5365 27.1884 40.7826M20.3913 47.5797C16.6374 47.5797 13.5942 44.5365 13.5942 40.7826M20.3913 47.5797V54.3768M27.1884 40.7826C27.1884 37.0287 24.1452 33.9855 20.3913 33.9855M27.1884 40.7826H33.9855M20.3913 33.9855C16.6374 33.9855 13.5942 37.0287 13.5942 40.7826M20.3913 33.9855V27.1884M13.5942 40.7826H6.7971M11.3285 31.7198L15.8599 36.2512M24.9227 45.314L29.4541 49.8454M29.4541 31.7198L24.9227 36.2512M15.8599 45.314L11.3285 49.8454" stroke="#4D47A7" stroke-width="4.5314"/>
</svg>
