<svg width="91" height="101" viewBox="0 0 91 101" fill="none" xmlns="http://www.w3.org/2000/svg">
<path d="M18.267 69.0901L5.39485 61.9303L7.18482 58.7123C12.5547 49.0582 25.7887 47.992 25.7887 47.992L34.7385 31.9019C41.8984 19.0298 58.7123 11.5276 65.1484 15.1075C71.5844 18.6874 74.0787 36.9294 66.9188 49.8015L57.969 65.8917C57.969 65.8917 64.0431 77.6976 58.6732 87.3517L56.8833 90.5697L44.0112 83.4099M18.267 69.0901L19.3331 82.3241L32.2052 89.484L44.0112 83.4099M18.267 69.0901L44.0112 83.4099M50.8287 40.8517C52.6059 41.8403 54.8481 41.2009 55.8367 39.4237C56.8252 37.6464 56.1859 35.4042 54.4086 34.4157C52.6313 33.4271 50.3892 34.0665 49.4006 35.8437C48.412 37.621 49.0514 39.8631 50.8287 40.8517Z" stroke="#4D47A7" stroke-width="7.36469"/>
</svg>
