<svg width="60" height="50" viewBox="0 0 60 50" fill="none" xmlns="http://www.w3.org/2000/svg">
<path d="M7.94335 40.0751H3V3H35.1317V37.6034M7.94335 40.0751C7.94335 35.9799 11.2632 32.6601 15.3584 32.6601C19.4536 32.6601 22.7734 35.9799 22.7734 40.0751M7.94335 40.0751C7.94335 44.1703 11.2632 47.4901 15.3584 47.4901C19.4536 47.4901 22.7734 44.1703 22.7734 40.0751M35.1317 40.0751H22.7734M35.1317 40.0751C35.1317 35.9799 38.4516 32.6601 42.5468 32.6601C46.642 32.6601 49.9618 35.9799 49.9618 40.0751M35.1317 40.0751C35.1317 44.1703 38.4516 47.4901 42.5468 47.4901C46.642 47.4901 49.9618 44.1703 49.9618 40.0751M49.9618 40.0751H57.3768V27.7167L47.4901 15.3584H35.1317" stroke="#4D47A7" stroke-width="4.94335"/>
</svg>
