<svg width="55" height="45" viewBox="0 0 55 45" fill="none" xmlns="http://www.w3.org/2000/svg">
<path fill-rule="evenodd" clip-rule="evenodd" d="M54.3768 5.2315C52.3762 6.11966 50.226 6.7178 47.9694 6.98742C50.2714 5.60761 52.0409 3.42121 52.8746 0.815652C50.72 2.09577 48.3319 3.02244 45.7898 3.52543C43.7552 1.35489 40.8551 0 37.6469 0C31.4864 0 26.4906 4.99587 26.4906 11.1563C26.4906 12.0309 26.5903 12.8828 26.7806 13.6984C17.5093 13.234 9.2871 8.79318 3.78598 2.0414C2.82533 3.69083 2.27476 5.60534 2.27476 7.65127C2.27476 11.5211 4.24366 14.9378 7.23891 16.9384C5.41049 16.8772 3.68856 16.3765 2.18413 15.5427V15.6809C2.18413 21.0869 6.02903 25.5956 11.1337 26.6197C10.1979 26.878 9.21007 27.0117 8.19504 27.0117C7.47454 27.0117 6.77671 26.9414 6.09473 26.8123C7.51533 31.244 11.6344 34.4704 16.517 34.561C12.697 37.5517 7.8869 39.3348 2.6622 39.3348C1.76045 39.3348 0.872295 39.2827 0 39.1808C4.93696 42.3437 10.8006 44.1925 17.1015 44.1925C37.622 44.1925 48.8417 27.1929 48.8417 12.45C48.8417 11.9674 48.8304 11.4871 48.81 11.009C50.9896 9.43438 52.8814 7.47001 54.3768 5.2315Z" fill="#1DA1F2"/>
</svg>
