<svg width="55" height="39" viewBox="0 0 55 39" fill="none" xmlns="http://www.w3.org/2000/svg">
<path fill-rule="evenodd" clip-rule="evenodd" d="M21.574 26.1756L21.5723 10.8975L36.2642 18.5629L21.574 26.1756ZM53.833 8.24998C53.833 8.24998 53.3012 4.50308 51.6716 2.85308C49.6035 0.686508 47.2857 0.676312 46.2237 0.550565C38.6143 6.75231e-08 27.2003 0 27.2003 0H27.1765C27.1765 0 15.7625 6.75231e-08 8.15312 0.550565C7.08938 0.676312 4.77326 0.686508 2.70355 2.85308C1.07394 4.50308 0.543768 8.24998 0.543768 8.24998C0.543768 8.24998 0 12.6511 0 17.0505V21.1764C0 25.5775 0.543768 29.9769 0.543768 29.9769C0.543768 29.9769 1.07394 33.7238 2.70355 35.3738C4.77326 37.5404 7.4904 37.4724 8.70029 37.6984C13.0504 38.1164 27.1884 38.2456 27.1884 38.2456C27.1884 38.2456 38.6143 38.2286 46.2237 37.678C47.2857 37.5506 49.6035 37.5404 51.6716 35.3738C53.3012 33.7238 53.833 29.9769 53.833 29.9769C53.833 29.9769 54.3768 25.5775 54.3768 21.1764V17.0505C54.3768 12.6511 53.833 8.24998 53.833 8.24998Z" fill="#CD201F"/>
</svg>
